<svg xmlns="http://www.w3.org/2000/svg" viewBox="0 0 260 320"><defs><linearGradient id="leaf" x2="1" y2="1"><stop stop-color="#b8c29a"/><stop offset=".5" stop-color="#819a70"/><stop offset="1" stop-color="#4c6e51"/></linearGradient><linearGradient id="brass" x2="1" y2="1"><stop stop-color="#e4c98d"/><stop offset=".5" stop-color="#b39860"/><stop offset="1" stop-color="#786b49"/></linearGradient><linearGradient id="robe" x2="1" y2="1"><stop stop-color="#6d8874"/><stop offset=".5" stop-color="#34594b"/><stop offset="1" stop-color="#243f37"/></linearGradient><linearGradient id="wing" x2="1" y2="1"><stop stop-color="#ddbb85"/><stop offset=".6" stop-color="#b38763"/><stop offset="1" stop-color="#80604d"/></linearGradient><linearGradient id="stone" x2="1" y2="1"><stop stop-color="#a3af8d"/><stop offset="1" stop-color="#6b7f5f"/></linearGradient><linearGradient id="bark" x2="1" y2="1"><stop stop-color="#9aa46c"/><stop offset=".6" stop-color="#67794a"/><stop offset="1" stop-color="#3a5937"/></linearGradient></defs><ellipse cx="130" cy="296" rx="84" ry="13" fill="#203f31" opacity=".2"/><path d="M79 284q-11-60 18-135h63q31 73 24 138l-40-8-17 17-19-16z" fill="url(#robe)" stroke="#304d41" stroke-width="4"/><path d="m104 153 21 104 27-103M90 211l24 6m43-6 18-5" fill="none" stroke="#c2b684" stroke-width="3"/><path d="M126 54q56 41 48 104l-29-16-20 18-21-18-27 13q-10-59 49-101z" fill="#406751" stroke="#283f36" stroke-width="4"/><path d="M98 107q24-32 54 0l-7 39-18 11-20-11z" fill="#acb49d" stroke="#54765d" stroke-width="2"/><path d="M102 114q22-24 45 0" fill="#d8d1aa"/><path d="m105 127 14-2m16 0 12 2" stroke="#345540" stroke-width="4"/><path d="M122 145h12" stroke="#718f77" stroke-width="2"/><path d="M77 181 39 170l-11 13 41 14m101-13 38-12" stroke="#627a5d" stroke-width="13" fill="none" stroke-linecap="round"/><path d="M15 186q34-14 61 4v54q-29-15-61-4zm62 4q29-19 54-8v56q-21-11-54 6z" fill="#e1d3a1" stroke="#9e8956" stroke-width="3"/><path d="M28 199h33m-31 10h27m-27 10h32m26-17 27-5m-27 17 25-5m-25 17 20-5" stroke="#849178" stroke-width="2"/><path d="m206 175 15-55 11 7-20 53" fill="#c9b887" stroke="#8f865b" stroke-width="2"/><path d="M215 145q-4-43 32-52-5 34-32 52" fill="#b8c4a0" stroke="#5e8061" stroke-width="2"/><path d="m222 137 19-35" stroke="#6d8c6c" stroke-width="2"/><path d="M74 178q-16-39-4-50m113 34q17-37 4-62" fill="none" stroke="#bfd0b2" stroke-width="2" opacity=".6"/><path d="M24 311h210" stroke="#d6c49a" stroke-width="1" opacity=".4"/></svg>