<svg xmlns="http://www.w3.org/2000/svg" viewBox="0 0 320 180"><defs><linearGradient id="sky" x2="0" y2="1"><stop stop-color="#754d42"/><stop offset="1" stop-color="#b18259"/></linearGradient><radialGradient id="halo"><stop stop-color="#e3bd80" stop-opacity=".65"/><stop offset="1" stop-color="#e3bd80" stop-opacity="0"/></radialGradient><pattern id="grain" width="13" height="11" patternUnits="userSpaceOnUse"><path d="M1 1h2m6 5h1M3 9h3" stroke="#efe6c1" stroke-width=".6" opacity=".15"/></pattern><filter id="shadow" x="-50%" y="-50%" width="200%" height="200%"><feDropShadow dx="0" dy="3" stdDeviation="2" flood-color="#182a21" flood-opacity=".5"/></filter></defs><path d="M0 0h320v180H0z" fill="url(#sky)"/><path d="M0 104h320v76H0z" fill="#765444"/><path d="M13 22h70v104H13zm225 0h69v104h-69z" fill="#493f3a"/><path d="M24 34h47v76H24zm226 0h45v76h-45z" fill="#af8055"/><path d="M0 126h320M0 151h320M19 126v25m39-25v25m203-25v25m39-25v25" stroke="#9b7859" stroke-width="2"/><path d="M0 119h320" stroke="#dac083" stroke-width="2"/><ellipse cx="160" cy="78" rx="120" ry="82" fill="url(#halo)"/><path d="M101 140V44q59-51 118 0v96" fill="none" stroke="#e3bd80" stroke-opacity=".22" stroke-width="1.4"/><path d="M109 139V49q51-44 102 0v90" fill="none" stroke="#e3bd80" stroke-opacity=".15" stroke-width=".8"/><path d="M0 160q160-31 320 0v20H0z" fill="#243d30" opacity=".65"/><ellipse cx="160" cy="151" rx="55" ry="9" fill="#182c24" opacity=".4"/><g transform="translate(92 4) scale(1.36)" filter="url(#shadow)" stroke="#354834" stroke-width=".6" stroke-linejoin="round"><path d="M50 82 23 54C0 27 38 8 50 31 65 5 99 28 78 54z" fill="#a76d59"/><path d="M50 32v39M33 43l35 16" stroke="#e7d7ab" stroke-width="4"/><path d="M12 73 7 84m76-12 9 9" stroke="#b78f50" stroke-width="3"/><path d="M30 38q3-12 12-8m14 36 10-11M26 63q-4 16-16 16m54-6q11-1 15 6" stroke="#d6ae86" fill="none" stroke-width="1.4"/><path d="m46 54 4-7 4 7-4 5z" fill="#e4bf73"/></g><path d="M3 180q25-43 54-35-10 30-54 35M317 180q-25-43-54-35 10 30 54 35" fill="#315542"/><path d="m7 177 36-21m270 21-36-21" stroke="#94a275" stroke-width="1.5"/><path d="M7 7h306v166H7z" fill="url(#grain)"/><path d="M8 8h304v164H8z" fill="none" stroke="#e3bd80" stroke-opacity=".27"/><path d="m9 20 11-11m280 0 11 11M9 160l11 11m280 0 11-11" stroke="#e3bd80" opacity=".5"/></svg>