<svg xmlns="http://www.w3.org/2000/svg" viewBox="0 0 320 180"><defs><linearGradient id="sky" x2="0" y2="1"><stop stop-color="#34563f"/><stop offset="1" stop-color="#719171"/></linearGradient><radialGradient id="halo"><stop stop-color="#b2c39a" stop-opacity=".65"/><stop offset="1" stop-color="#b2c39a" stop-opacity="0"/></radialGradient><pattern id="grain" width="13" height="11" patternUnits="userSpaceOnUse"><path d="M1 1h2m6 5h1M3 9h3" stroke="#efe6c1" stroke-width=".6" opacity=".15"/></pattern><filter id="shadow" x="-50%" y="-50%" width="200%" height="200%"><feDropShadow dx="0" dy="3" stdDeviation="2" flood-color="#182a21" flood-opacity=".5"/></filter></defs><path d="M0 0h320v180H0z" fill="url(#sky)"/><path d="M0 132q62-33 123-17 45-56 107-3 48-43 90-15v83H0z" fill="#4e7253"/><path d="M25 0q20 70 3 145h23Q32 61 60 0zm249 0q-14 88 2 140h19Q276 64 305 0z" fill="#284a37"/><path d="M10 31q58-47 96 10Q44 75 10 31M217 7q80-27 103 32-64 20-103-32" fill="#527557"/><ellipse cx="160" cy="78" rx="120" ry="82" fill="url(#halo)"/><path d="M101 140V44q59-51 118 0v96" fill="none" stroke="#b2c39a" stroke-opacity=".22" stroke-width="1.4"/><path d="M109 139V49q51-44 102 0v90" fill="none" stroke="#b2c39a" stroke-opacity=".15" stroke-width=".8"/><path d="M0 160q160-31 320 0v20H0z" fill="#243d30" opacity=".65"/><ellipse cx="160" cy="151" rx="55" ry="9" fill="#182c24" opacity=".4"/><g transform="translate(92 4) scale(1.36)" filter="url(#shadow)" stroke="#354834" stroke-width=".6" stroke-linejoin="round"><path d="M23 72C2 29 47 9 83 18c1 39-18 68-49 62z" fill="#779575"/><path d="M15 89 72 28M37 65l-1-24M51 51l21 2" stroke="#e1d5a9" stroke-width="4"/><path d="m23 15 2-9m58 65 9 2" stroke="#b79051" stroke-width="3"/><path d="M33 69q0-27 38-43M46 51l-1-18M58 38l16 1" fill="none" stroke="#adb98b" stroke-width="1.5"/><path d="M53 61q-7 9 0 12 7-3 0-12zM35 34q-5 8 0 10 5-2 0-10z" fill="#dde6c2" opacity=".8"/></g><path d="M3 180q25-43 54-35-10 30-54 35M317 180q-25-43-54-35 10 30 54 35" fill="#315542"/><path d="m7 177 36-21m270 21-36-21" stroke="#94a275" stroke-width="1.5"/><path d="M7 7h306v166H7z" fill="url(#grain)"/><path d="M8 8h304v164H8z" fill="none" stroke="#b2c39a" stroke-opacity=".27"/><path d="m9 20 11-11m280 0 11 11M9 160l11 11m280 0 11-11" stroke="#b2c39a" opacity=".5"/></svg>