<svg xmlns="http://www.w3.org/2000/svg" viewBox="0 0 1200 420"><defs><linearGradient id="sky" x2="0" y2="1"><stop stop-color="#bdc4a5"/><stop offset="1" stop-color="#e5dabb"/></linearGradient><linearGradient id="bark" x2="1" y2="0"><stop stop-color="#345842"/><stop offset=".5" stop-color="#617854"/><stop offset="1" stop-color="#244a39"/></linearGradient><radialGradient id="light"><stop stop-color="#f6e7ad" stop-opacity=".48"/><stop offset="1" stop-color="#e3d6a1" stop-opacity="0"/></radialGradient><pattern id="grain" width="25" height="21" patternUnits="userSpaceOnUse"><path d="M2 3h3m15 8h2M7 19h5" stroke="#eee4be" stroke-width=".8" opacity=".18"/></pattern></defs><path d="M0 0h1200v420H0z" fill="#7e9182"/><path d="M315 313V99q287-214 571 0v214z" fill="#4f7061" stroke="#abb18b" stroke-width="8"/><path d="M391 308V119q208-162 417 0v189z" fill="#a0ae93" stroke="#c3be94" stroke-width="4"/><path d="M441 309V141q160-111 320 0v168z" fill="#718d77"/><path d="M516 246v-72q84-50 168 0v72z" fill="#c5c0a0"/><path d="M574 226h58v91h-58zM556 213h93v19h-93z" fill="#ad9a6e" stroke="#d7c18a" stroke-width="3"/><path d="m575 211 12-15 16 17 14-17 13 15" fill="none" stroke="#ded1a1" stroke-width="3"/><path d="M44 0h48v340H44z" fill="url(#bark)"/><path d="M36 32h64v16h-64zm0 244h64v16h-64z" fill="#b3b28c"/><path d="M57 0v327m17-327v327" stroke="#9cac8c" stroke-width="3" opacity=".7"/><path d="M240 0h48v340H240z" fill="url(#bark)"/><path d="M232 32h64v16h-64zm0 244h64v16h-64z" fill="#b3b28c"/><path d="M253 0v327m17-327v327" stroke="#9cac8c" stroke-width="3" opacity=".7"/><path d="M888 0h48v340H888z" fill="url(#bark)"/><path d="M880 32h64v16h-64zm0 244h64v16h-64z" fill="#b3b28c"/><path d="M901 0v327m17-327v327" stroke="#9cac8c" stroke-width="3" opacity=".7"/><path d="M1100 0h48v340H1100z" fill="url(#bark)"/><path d="M1092 32h64v16h-64zm0 244h64v16h-64z" fill="#b3b28c"/><path d="M1113 0v327m17-327v327" stroke="#9cac8c" stroke-width="3" opacity=".7"/><path d="M142 17h62v181l-31 32-31-32zm847 0h63v181l-31 32-32-32z" fill="#435e54" stroke="#9da482" stroke-width="3"/><path d="m165 64 8-17 8 17 15-9-7 37h-32l-7-37zm847 0 9-17 8 17 15-9-7 37h-32l-7-37z" fill="#b9a66f"/><path d="M0 330h1200v90H0z" fill="#637a63"/><path d="M413 330h373l78 90H333z" fill="#7b8570"/><path d="M0 350h1200M0 387h1200m-1090-57-33 90m255-90-27 90m776-90 47 90" stroke="#9aa288" stroke-width="2"/><path d="M473 363h251l24 26H448z" fill="#a0a087"/><path d="M221 277h31v91h-31m699-91h31v91h-31" fill="#9b9470"/><path d="M204 266h67l-12 31h-44zm699 0h67l-13 31h-44z" fill="#b0a278"/><path d="M218 260q-9-29 14-45 2 21 14 28 14-15 7-29 25 31 6 48zM918 260q-9-29 14-45 2 21 14 28 14-15 7-29 25 31 6 48z" fill="#dfb273"/><path d="M226 258q-1-18 9-24 14 13 11 24zm700 0q-1-18 9-24 14 13 11 24z" fill="#f1d391"/><path d="M34 401h67l-24-29-36 6zm1062-14 47-19 39 45h-82z" fill="#9ea58a"/><path d="M0 0h1200v420H0z" fill="url(#grain)"/></svg>