<svg xmlns="http://www.w3.org/2000/svg" viewBox="0 0 720 178" role="img" aria-label="Night Drive works scenery"><defs><linearGradient id="sky" x2="0" y2="1"><stop stop-color="#142732"/><stop offset="1" stop-color="#527477"/></linearGradient><linearGradient id="road" x2="0" y2="1"><stop stop-color="#1a303b"/><stop offset="1" stop-color="#354d55"/></linearGradient></defs><rect x="0" y="0" width="720" height="178" fill="url(#sky)"/><rect x="0" y="75" width="720" height="16" fill="#849894" opacity=".08"/><rect x="0" y="114" width="720" height="16" fill="#bfd0aa" opacity=".08"/><rect x="0" y="155" width="720" height="16" fill="#94b5aa" opacity=".11"/><rect x="43" y="30" width="2" height="1" fill="#c7d9b2" opacity=".55"/><rect x="180" y="101" width="1" height="1" fill="#c7d9b2" opacity=".55"/><rect x="317" y="54" width="1" height="1" fill="#c7d9b2" opacity=".55"/><rect x="454" y="7" width="2" height="1" fill="#c7d9b2" opacity=".55"/><rect x="591" y="78" width="1" height="1" fill="#c7d9b2" opacity=".55"/><rect x="8" y="31" width="1" height="1" fill="#c7d9b2" opacity=".55"/><rect x="145" y="102" width="2" height="1" fill="#c7d9b2" opacity=".55"/><rect x="282" y="55" width="1" height="1" fill="#c7d9b2" opacity=".55"/><rect x="419" y="8" width="1" height="1" fill="#c7d9b2" opacity=".55"/><rect x="556" y="79" width="2" height="1" fill="#c7d9b2" opacity=".55"/><rect x="693" y="32" width="1" height="1" fill="#c7d9b2" opacity=".55"/><rect x="110" y="103" width="1" height="1" fill="#c7d9b2" opacity=".55"/><rect x="247" y="56" width="2" height="1" fill="#c7d9b2" opacity=".55"/><rect x="384" y="9" width="1" height="1" fill="#c7d9b2" opacity=".55"/><rect x="521" y="80" width="1" height="1" fill="#c7d9b2" opacity=".55"/><rect x="658" y="33" width="2" height="1" fill="#c7d9b2" opacity=".55"/><rect x="75" y="104" width="1" height="1" fill="#c7d9b2" opacity=".55"/><rect x="212" y="57" width="1" height="1" fill="#c7d9b2" opacity=".55"/><rect x="349" y="10" width="2" height="1" fill="#c7d9b2" opacity=".55"/><rect x="486" y="81" width="1" height="1" fill="#c7d9b2" opacity=".55"/><rect x="623" y="34" width="1" height="1" fill="#c7d9b2" opacity=".55"/><rect x="40" y="105" width="2" height="1" fill="#c7d9b2" opacity=".55"/><rect x="177" y="58" width="1" height="1" fill="#c7d9b2" opacity=".55"/><rect x="314" y="11" width="1" height="1" fill="#c7d9b2" opacity=".55"/><rect x="451" y="82" width="2" height="1" fill="#c7d9b2" opacity=".55"/><rect x="588" y="35" width="1" height="1" fill="#c7d9b2" opacity=".55"/><rect x="5" y="106" width="1" height="1" fill="#c7d9b2" opacity=".55"/><rect x="142" y="59" width="2" height="1" fill="#c7d9b2" opacity=".55"/><rect x="279" y="12" width="1" height="1" fill="#c7d9b2" opacity=".55"/><rect x="416" y="83" width="1" height="1" fill="#c7d9b2" opacity=".55"/><rect x="553" y="36" width="2" height="1" fill="#c7d9b2" opacity=".55"/><rect x="690" y="107" width="1" height="1" fill="#c7d9b2" opacity=".55"/><rect x="107" y="60" width="1" height="1" fill="#c7d9b2" opacity=".55"/><rect x="244" y="13" width="2" height="1" fill="#c7d9b2" opacity=".55"/><rect x="381" y="84" width="1" height="1" fill="#c7d9b2" opacity=".55"/><rect x="518" y="37" width="1" height="1" fill="#c7d9b2" opacity=".55"/><rect x="655" y="108" width="2" height="1" fill="#c7d9b2" opacity=".55"/><rect x="72" y="61" width="1" height="1" fill="#c7d9b2" opacity=".55"/><rect x="209" y="14" width="1" height="1" fill="#c7d9b2" opacity=".55"/><rect x="346" y="85" width="2" height="1" fill="#c7d9b2" opacity=".55"/><rect x="483" y="38" width="1" height="1" fill="#c7d9b2" opacity=".55"/><rect x="620" y="109" width="1" height="1" fill="#c7d9b2" opacity=".55"/><rect x="37" y="62" width="2" height="1" fill="#c7d9b2" opacity=".55"/><rect x="174" y="15" width="1" height="1" fill="#c7d9b2" opacity=".55"/><rect x="311" y="86" width="1" height="1" fill="#c7d9b2" opacity=".55"/><rect x="448" y="39" width="2" height="1" fill="#c7d9b2" opacity=".55"/><rect x="585" y="110" width="1" height="1" fill="#c7d9b2" opacity=".55"/><rect x="2" y="63" width="1" height="1" fill="#c7d9b2" opacity=".55"/><rect x="506" y="27" width="24" height="4" fill="#eedab2"/><rect x="501" y="31" width="34" height="4" fill="#eedab2"/><rect x="497" y="35" width="42" height="25" fill="#eedab2"/><rect x="501" y="60" width="34" height="4" fill="#eedab2"/><rect x="506" y="64" width="24" height="4" fill="#eedab2"/><rect x="523" y="38" width="8" height="6" fill="#ccbf9d"/><rect x="504" y="51" width="7" height="5" fill="#ccbf9d"/><rect x="-12" y="138" width="89" height="40" fill="#443e4a"/><rect x="-9" y="135" width="84" height="4" fill="#746963"/><rect x="-3" y="111" width="6" height="5" fill="#b58b66" opacity=".6"/><rect x="11" y="111" width="6" height="5" fill="#b58b66" opacity=".6"/><rect x="25" y="111" width="6" height="5" fill="#b58b66" opacity=".6"/><rect x="39" y="111" width="6" height="5" fill="#b58b66" opacity=".6"/><rect x="53" y="111" width="6" height="5" fill="#b58b66" opacity=".6"/><rect x="67" y="111" width="6" height="5" fill="#b58b66" opacity=".6"/><rect x="-3" y="124" width="6" height="5" fill="#b58b66" opacity=".6"/><rect x="11" y="124" width="6" height="5" fill="#b58b66" opacity=".6"/><rect x="25" y="124" width="6" height="5" fill="#b58b66" opacity=".6"/><rect x="39" y="124" width="6" height="5" fill="#b58b66" opacity=".6"/><rect x="53" y="124" width="6" height="5" fill="#b58b66" opacity=".6"/><rect x="67" y="124" width="6" height="5" fill="#b58b66" opacity=".6"/><rect x="-3" y="137" width="6" height="5" fill="#b58b66" opacity=".6"/><rect x="11" y="137" width="6" height="5" fill="#b58b66" opacity=".6"/><rect x="25" y="137" width="6" height="5" fill="#b58b66" opacity=".6"/><rect x="39" y="137" width="6" height="5" fill="#b58b66" opacity=".6"/><rect x="53" y="137" width="6" height="5" fill="#b58b66" opacity=".6"/><rect x="67" y="137" width="6" height="5" fill="#b58b66" opacity=".6"/><rect x="-3" y="150" width="6" height="5" fill="#b58b66" opacity=".6"/><rect x="11" y="150" width="6" height="5" fill="#b58b66" opacity=".6"/><rect x="25" y="150" width="6" height="5" fill="#b58b66" opacity=".6"/><rect x="39" y="150" width="6" height="5" fill="#b58b66" opacity=".6"/><rect x="53" y="150" width="6" height="5" fill="#b58b66" opacity=".6"/><rect x="67" y="150" width="6" height="5" fill="#b58b66" opacity=".6"/><rect x="-3" y="163" width="6" height="5" fill="#b58b66" opacity=".6"/><rect x="11" y="163" width="6" height="5" fill="#b58b66" opacity=".6"/><rect x="25" y="163" width="6" height="5" fill="#b58b66" opacity=".6"/><rect x="39" y="163" width="6" height="5" fill="#b58b66" opacity=".6"/><rect x="53" y="163" width="6" height="5" fill="#b58b66" opacity=".6"/><rect x="67" y="163" width="6" height="5" fill="#b58b66" opacity=".6"/><rect x="18" y="81" width="13" height="80" fill="#62505a"/><rect x="16" y="77" width="17" height="5" fill="#8e7067"/><rect x="19" y="72" width="11" height="3" fill="#d5a575" opacity=".6"/><rect x="93" y="122" width="89" height="56" fill="#443e4a"/><rect x="96" y="119" width="84" height="4" fill="#746963"/><rect x="102" y="95" width="6" height="5" fill="#b58b66" opacity=".6"/><rect x="116" y="95" width="6" height="5" fill="#b58b66" opacity=".6"/><rect x="130" y="95" width="6" height="5" fill="#b58b66" opacity=".6"/><rect x="144" y="95" width="6" height="5" fill="#b58b66" opacity=".6"/><rect x="158" y="95" width="6" height="5" fill="#b58b66" opacity=".6"/><rect x="172" y="95" width="6" height="5" fill="#b58b66" opacity=".6"/><rect x="102" y="108" width="6" height="5" fill="#b58b66" opacity=".6"/><rect x="116" y="108" width="6" height="5" fill="#b58b66" opacity=".6"/><rect x="130" y="108" width="6" height="5" fill="#b58b66" opacity=".6"/><rect x="144" y="108" width="6" height="5" fill="#b58b66" opacity=".6"/><rect x="158" y="108" width="6" height="5" fill="#b58b66" opacity=".6"/><rect x="172" y="108" width="6" height="5" fill="#b58b66" opacity=".6"/><rect x="102" y="121" width="6" height="5" fill="#b58b66" opacity=".6"/><rect x="116" y="121" width="6" height="5" fill="#b58b66" opacity=".6"/><rect x="130" y="121" width="6" height="5" fill="#b58b66" opacity=".6"/><rect x="144" y="121" width="6" height="5" fill="#b58b66" opacity=".6"/><rect x="158" y="121" width="6" height="5" fill="#b58b66" opacity=".6"/><rect x="172" y="121" width="6" height="5" fill="#b58b66" opacity=".6"/><rect x="102" y="134" width="6" height="5" fill="#b58b66" opacity=".6"/><rect x="116" y="134" width="6" height="5" fill="#b58b66" opacity=".6"/><rect x="130" y="134" width="6" height="5" fill="#b58b66" opacity=".6"/><rect x="144" y="134" width="6" height="5" fill="#b58b66" opacity=".6"/><rect x="158" y="134" width="6" height="5" fill="#b58b66" opacity=".6"/><rect x="172" y="134" width="6" height="5" fill="#b58b66" opacity=".6"/><rect x="102" y="147" width="6" height="5" fill="#b58b66" opacity=".6"/><rect x="116" y="147" width="6" height="5" fill="#b58b66" opacity=".6"/><rect x="130" y="147" width="6" height="5" fill="#b58b66" opacity=".6"/><rect x="144" y="147" width="6" height="5" fill="#b58b66" opacity=".6"/><rect x="158" y="147" width="6" height="5" fill="#b58b66" opacity=".6"/><rect x="172" y="147" width="6" height="5" fill="#b58b66" opacity=".6"/><rect x="102" y="160" width="6" height="5" fill="#b58b66" opacity=".6"/><rect x="116" y="160" width="6" height="5" fill="#b58b66" opacity=".6"/><rect x="130" y="160" width="6" height="5" fill="#b58b66" opacity=".6"/><rect x="144" y="160" width="6" height="5" fill="#b58b66" opacity=".6"/><rect x="158" y="160" width="6" height="5" fill="#b58b66" opacity=".6"/><rect x="172" y="160" width="6" height="5" fill="#b58b66" opacity=".6"/><rect x="123" y="66" width="13" height="80" fill="#62505a"/><rect x="121" y="62" width="17" height="5" fill="#8e7067"/><rect x="124" y="57" width="11" height="3" fill="#d5a575" opacity=".6"/><rect x="198" y="106" width="89" height="72" fill="#443e4a"/><rect x="201" y="103" width="84" height="4" fill="#746963"/><rect x="207" y="79" width="6" height="5" fill="#b58b66" opacity=".6"/><rect x="221" y="79" width="6" height="5" fill="#b58b66" opacity=".6"/><rect x="235" y="79" width="6" height="5" fill="#b58b66" opacity=".6"/><rect x="249" y="79" width="6" height="5" fill="#b58b66" opacity=".6"/><rect x="263" y="79" width="6" height="5" fill="#b58b66" opacity=".6"/><rect x="277" y="79" width="6" height="5" fill="#b58b66" opacity=".6"/><rect x="207" y="92" width="6" height="5" fill="#b58b66" opacity=".6"/><rect x="221" y="92" width="6" height="5" fill="#b58b66" opacity=".6"/><rect x="235" y="92" width="6" height="5" fill="#b58b66" opacity=".6"/><rect x="249" y="92" width="6" height="5" fill="#b58b66" opacity=".6"/><rect x="263" y="92" width="6" height="5" fill="#b58b66" opacity=".6"/><rect x="277" y="92" width="6" height="5" fill="#b58b66" opacity=".6"/><rect x="207" y="105" width="6" height="5" fill="#b58b66" opacity=".6"/><rect x="221" y="105" width="6" height="5" fill="#b58b66" opacity=".6"/><rect x="235" y="105" width="6" height="5" fill="#b58b66" opacity=".6"/><rect x="249" y="105" width="6" height="5" fill="#b58b66" opacity=".6"/><rect x="263" y="105" width="6" height="5" fill="#b58b66" opacity=".6"/><rect x="277" y="105" width="6" height="5" fill="#b58b66" opacity=".6"/><rect x="207" y="118" width="6" height="5" fill="#b58b66" opacity=".6"/><rect x="221" y="118" width="6" height="5" fill="#b58b66" opacity=".6"/><rect x="235" y="118" width="6" height="5" fill="#b58b66" opacity=".6"/><rect x="249" y="118" width="6" height="5" fill="#b58b66" opacity=".6"/><rect x="263" y="118" width="6" height="5" fill="#b58b66" opacity=".6"/><rect x="277" y="118" width="6" height="5" fill="#b58b66" opacity=".6"/><rect x="207" y="131" width="6" height="5" fill="#b58b66" opacity=".6"/><rect x="221" y="131" width="6" height="5" fill="#b58b66" opacity=".6"/><rect x="235" y="131" width="6" height="5" fill="#b58b66" opacity=".6"/><rect x="249" y="131" width="6" height="5" fill="#b58b66" opacity=".6"/><rect x="263" y="131" width="6" height="5" fill="#b58b66" opacity=".6"/><rect x="277" y="131" width="6" height="5" fill="#b58b66" opacity=".6"/><rect x="207" y="144" width="6" height="5" fill="#b58b66" opacity=".6"/><rect x="221" y="144" width="6" height="5" fill="#b58b66" opacity=".6"/><rect x="235" y="144" width="6" height="5" fill="#b58b66" opacity=".6"/><rect x="249" y="144" width="6" height="5" fill="#b58b66" opacity=".6"/><rect x="263" y="144" width="6" height="5" fill="#b58b66" opacity=".6"/><rect x="277" y="144" width="6" height="5" fill="#b58b66" opacity=".6"/><rect x="207" y="157" width="6" height="5" fill="#b58b66" opacity=".6"/><rect x="221" y="157" width="6" height="5" fill="#b58b66" opacity=".6"/><rect x="235" y="157" width="6" height="5" fill="#b58b66" opacity=".6"/><rect x="249" y="157" width="6" height="5" fill="#b58b66" opacity=".6"/><rect x="263" y="157" width="6" height="5" fill="#b58b66" opacity=".6"/><rect x="277" y="157" width="6" height="5" fill="#b58b66" opacity=".6"/><rect x="207" y="170" width="6" height="5" fill="#b58b66" opacity=".6"/><rect x="221" y="170" width="6" height="5" fill="#b58b66" opacity=".6"/><rect x="235" y="170" width="6" height="5" fill="#b58b66" opacity=".6"/><rect x="249" y="170" width="6" height="5" fill="#b58b66" opacity=".6"/><rect x="263" y="170" width="6" height="5" fill="#b58b66" opacity=".6"/><rect x="277" y="170" width="6" height="5" fill="#b58b66" opacity=".6"/><rect x="228" y="81" width="13" height="80" fill="#62505a"/><rect x="226" y="77" width="17" height="5" fill="#8e7067"/><rect x="229" y="72" width="11" height="3" fill="#d5a575" opacity=".6"/><rect x="303" y="138" width="89" height="40" fill="#443e4a"/><rect x="306" y="135" width="84" height="4" fill="#746963"/><rect x="312" y="111" width="6" height="5" fill="#b58b66" opacity=".6"/><rect x="326" y="111" width="6" height="5" fill="#b58b66" opacity=".6"/><rect x="340" y="111" width="6" height="5" fill="#b58b66" opacity=".6"/><rect x="354" y="111" width="6" height="5" fill="#b58b66" opacity=".6"/><rect x="368" y="111" width="6" height="5" fill="#b58b66" opacity=".6"/><rect x="382" y="111" width="6" height="5" fill="#b58b66" opacity=".6"/><rect x="312" y="124" width="6" height="5" fill="#b58b66" opacity=".6"/><rect x="326" y="124" width="6" height="5" fill="#b58b66" opacity=".6"/><rect x="340" y="124" width="6" height="5" fill="#b58b66" opacity=".6"/><rect x="354" y="124" width="6" height="5" fill="#b58b66" opacity=".6"/><rect x="368" y="124" width="6" height="5" fill="#b58b66" opacity=".6"/><rect x="382" y="124" width="6" height="5" fill="#b58b66" opacity=".6"/><rect x="312" y="137" width="6" height="5" fill="#b58b66" opacity=".6"/><rect x="326" y="137" width="6" height="5" fill="#b58b66" opacity=".6"/><rect x="340" y="137" width="6" height="5" fill="#b58b66" opacity=".6"/><rect x="354" y="137" width="6" height="5" fill="#b58b66" opacity=".6"/><rect x="368" y="137" width="6" height="5" fill="#b58b66" opacity=".6"/><rect x="382" y="137" width="6" height="5" fill="#b58b66" opacity=".6"/><rect x="312" y="150" width="6" height="5" fill="#b58b66" opacity=".6"/><rect x="326" y="150" width="6" height="5" fill="#b58b66" opacity=".6"/><rect x="340" y="150" width="6" height="5" fill="#b58b66" opacity=".6"/><rect x="354" y="150" width="6" height="5" fill="#b58b66" opacity=".6"/><rect x="368" y="150" width="6" height="5" fill="#b58b66" opacity=".6"/><rect x="382" y="150" width="6" height="5" fill="#b58b66" opacity=".6"/><rect x="312" y="163" width="6" height="5" fill="#b58b66" opacity=".6"/><rect x="326" y="163" width="6" height="5" fill="#b58b66" opacity=".6"/><rect x="340" y="163" width="6" height="5" fill="#b58b66" opacity=".6"/><rect x="354" y="163" width="6" height="5" fill="#b58b66" opacity=".6"/><rect x="368" y="163" width="6" height="5" fill="#b58b66" opacity=".6"/><rect x="382" y="163" width="6" height="5" fill="#b58b66" opacity=".6"/><rect x="333" y="66" width="13" height="80" fill="#62505a"/><rect x="331" y="62" width="17" height="5" fill="#8e7067"/><rect x="334" y="57" width="11" height="3" fill="#d5a575" opacity=".6"/><rect x="408" y="122" width="89" height="56" fill="#443e4a"/><rect x="411" y="119" width="84" height="4" fill="#746963"/><rect x="417" y="95" width="6" height="5" fill="#b58b66" opacity=".6"/><rect x="431" y="95" width="6" height="5" fill="#b58b66" opacity=".6"/><rect x="445" y="95" width="6" height="5" fill="#b58b66" opacity=".6"/><rect x="459" y="95" width="6" height="5" fill="#b58b66" opacity=".6"/><rect x="473" y="95" width="6" height="5" fill="#b58b66" opacity=".6"/><rect x="487" y="95" width="6" height="5" fill="#b58b66" opacity=".6"/><rect x="417" y="108" width="6" height="5" fill="#b58b66" opacity=".6"/><rect x="431" y="108" width="6" height="5" fill="#b58b66" opacity=".6"/><rect x="445" y="108" width="6" height="5" fill="#b58b66" opacity=".6"/><rect x="459" y="108" width="6" height="5" fill="#b58b66" opacity=".6"/><rect x="473" y="108" width="6" height="5" fill="#b58b66" opacity=".6"/><rect x="487" y="108" width="6" height="5" fill="#b58b66" opacity=".6"/><rect x="417" y="121" width="6" height="5" fill="#b58b66" opacity=".6"/><rect x="431" y="121" width="6" height="5" fill="#b58b66" opacity=".6"/><rect x="445" y="121" width="6" height="5" fill="#b58b66" opacity=".6"/><rect x="459" y="121" width="6" height="5" fill="#b58b66" opacity=".6"/><rect x="473" y="121" width="6" height="5" fill="#b58b66" opacity=".6"/><rect x="487" y="121" width="6" height="5" fill="#b58b66" opacity=".6"/><rect x="417" y="134" width="6" height="5" fill="#b58b66" opacity=".6"/><rect x="431" y="134" width="6" height="5" fill="#b58b66" opacity=".6"/><rect x="445" y="134" width="6" height="5" fill="#b58b66" opacity=".6"/><rect x="459" y="134" width="6" height="5" fill="#b58b66" opacity=".6"/><rect x="473" y="134" width="6" height="5" fill="#b58b66" opacity=".6"/><rect x="487" y="134" width="6" height="5" fill="#b58b66" opacity=".6"/><rect x="417" y="147" width="6" height="5" fill="#b58b66" opacity=".6"/><rect x="431" y="147" width="6" height="5" fill="#b58b66" opacity=".6"/><rect x="445" y="147" width="6" height="5" fill="#b58b66" opacity=".6"/><rect x="459" y="147" width="6" height="5" fill="#b58b66" opacity=".6"/><rect x="473" y="147" width="6" height="5" fill="#b58b66" opacity=".6"/><rect x="487" y="147" width="6" height="5" fill="#b58b66" opacity=".6"/><rect x="417" y="160" width="6" height="5" fill="#b58b66" opacity=".6"/><rect x="431" y="160" width="6" height="5" fill="#b58b66" opacity=".6"/><rect x="445" y="160" width="6" height="5" fill="#b58b66" opacity=".6"/><rect x="459" y="160" width="6" height="5" fill="#b58b66" opacity=".6"/><rect x="473" y="160" width="6" height="5" fill="#b58b66" opacity=".6"/><rect x="487" y="160" width="6" height="5" fill="#b58b66" opacity=".6"/><rect x="438" y="81" width="13" height="80" fill="#62505a"/><rect x="436" y="77" width="17" height="5" fill="#8e7067"/><rect x="439" y="72" width="11" height="3" fill="#d5a575" opacity=".6"/><rect x="513" y="106" width="89" height="72" fill="#443e4a"/><rect x="516" y="103" width="84" height="4" fill="#746963"/><rect x="522" y="79" width="6" height="5" fill="#b58b66" opacity=".6"/><rect x="536" y="79" width="6" height="5" fill="#b58b66" opacity=".6"/><rect x="550" y="79" width="6" height="5" fill="#b58b66" opacity=".6"/><rect x="564" y="79" width="6" height="5" fill="#b58b66" opacity=".6"/><rect x="578" y="79" width="6" height="5" fill="#b58b66" opacity=".6"/><rect x="592" y="79" width="6" height="5" fill="#b58b66" opacity=".6"/><rect x="522" y="92" width="6" height="5" fill="#b58b66" opacity=".6"/><rect x="536" y="92" width="6" height="5" fill="#b58b66" opacity=".6"/><rect x="550" y="92" width="6" height="5" fill="#b58b66" opacity=".6"/><rect x="564" y="92" width="6" height="5" fill="#b58b66" opacity=".6"/><rect x="578" y="92" width="6" height="5" fill="#b58b66" opacity=".6"/><rect x="592" y="92" width="6" height="5" fill="#b58b66" opacity=".6"/><rect x="522" y="105" width="6" height="5" fill="#b58b66" opacity=".6"/><rect x="536" y="105" width="6" height="5" fill="#b58b66" opacity=".6"/><rect x="550" y="105" width="6" height="5" fill="#b58b66" opacity=".6"/><rect x="564" y="105" width="6" height="5" fill="#b58b66" opacity=".6"/><rect x="578" y="105" width="6" height="5" fill="#b58b66" opacity=".6"/><rect x="592" y="105" width="6" height="5" fill="#b58b66" opacity=".6"/><rect x="522" y="118" width="6" height="5" fill="#b58b66" opacity=".6"/><rect x="536" y="118" width="6" height="5" fill="#b58b66" opacity=".6"/><rect x="550" y="118" width="6" height="5" fill="#b58b66" opacity=".6"/><rect x="564" y="118" width="6" height="5" fill="#b58b66" opacity=".6"/><rect x="578" y="118" width="6" height="5" fill="#b58b66" opacity=".6"/><rect x="592" y="118" width="6" height="5" fill="#b58b66" opacity=".6"/><rect x="522" y="131" width="6" height="5" fill="#b58b66" opacity=".6"/><rect x="536" y="131" width="6" height="5" fill="#b58b66" opacity=".6"/><rect x="550" y="131" width="6" height="5" fill="#b58b66" opacity=".6"/><rect x="564" y="131" width="6" height="5" fill="#b58b66" opacity=".6"/><rect x="578" y="131" width="6" height="5" fill="#b58b66" opacity=".6"/><rect x="592" y="131" width="6" height="5" fill="#b58b66" opacity=".6"/><rect x="522" y="144" width="6" height="5" fill="#b58b66" opacity=".6"/><rect x="536" y="144" width="6" height="5" fill="#b58b66" opacity=".6"/><rect x="550" y="144" width="6" height="5" fill="#b58b66" opacity=".6"/><rect x="564" y="144" width="6" height="5" fill="#b58b66" opacity=".6"/><rect x="578" y="144" width="6" height="5" fill="#b58b66" opacity=".6"/><rect x="592" y="144" width="6" height="5" fill="#b58b66" opacity=".6"/><rect x="522" y="157" width="6" height="5" fill="#b58b66" opacity=".6"/><rect x="536" y="157" width="6" height="5" fill="#b58b66" opacity=".6"/><rect x="550" y="157" width="6" height="5" fill="#b58b66" opacity=".6"/><rect x="564" y="157" width="6" height="5" fill="#b58b66" opacity=".6"/><rect x="578" y="157" width="6" height="5" fill="#b58b66" opacity=".6"/><rect x="592" y="157" width="6" height="5" fill="#b58b66" opacity=".6"/><rect x="522" y="170" width="6" height="5" fill="#b58b66" opacity=".6"/><rect x="536" y="170" width="6" height="5" fill="#b58b66" opacity=".6"/><rect x="550" y="170" width="6" height="5" fill="#b58b66" opacity=".6"/><rect x="564" y="170" width="6" height="5" fill="#b58b66" opacity=".6"/><rect x="578" y="170" width="6" height="5" fill="#b58b66" opacity=".6"/><rect x="592" y="170" width="6" height="5" fill="#b58b66" opacity=".6"/><rect x="543" y="66" width="13" height="80" fill="#62505a"/><rect x="541" y="62" width="17" height="5" fill="#8e7067"/><rect x="544" y="57" width="11" height="3" fill="#d5a575" opacity=".6"/><rect x="618" y="138" width="89" height="40" fill="#443e4a"/><rect x="621" y="135" width="84" height="4" fill="#746963"/><rect x="627" y="111" width="6" height="5" fill="#b58b66" opacity=".6"/><rect x="641" y="111" width="6" height="5" fill="#b58b66" opacity=".6"/><rect x="655" y="111" width="6" height="5" fill="#b58b66" opacity=".6"/><rect x="669" y="111" width="6" height="5" fill="#b58b66" opacity=".6"/><rect x="683" y="111" width="6" height="5" fill="#b58b66" opacity=".6"/><rect x="697" y="111" width="6" height="5" fill="#b58b66" opacity=".6"/><rect x="627" y="124" width="6" height="5" fill="#b58b66" opacity=".6"/><rect x="641" y="124" width="6" height="5" fill="#b58b66" opacity=".6"/><rect x="655" y="124" width="6" height="5" fill="#b58b66" opacity=".6"/><rect x="669" y="124" width="6" height="5" fill="#b58b66" opacity=".6"/><rect x="683" y="124" width="6" height="5" fill="#b58b66" opacity=".6"/><rect x="697" y="124" width="6" height="5" fill="#b58b66" opacity=".6"/><rect x="627" y="137" width="6" height="5" fill="#b58b66" opacity=".6"/><rect x="641" y="137" width="6" height="5" fill="#b58b66" opacity=".6"/><rect x="655" y="137" width="6" height="5" fill="#b58b66" opacity=".6"/><rect x="669" y="137" width="6" height="5" fill="#b58b66" opacity=".6"/><rect x="683" y="137" width="6" height="5" fill="#b58b66" opacity=".6"/><rect x="697" y="137" width="6" height="5" fill="#b58b66" opacity=".6"/><rect x="627" y="150" width="6" height="5" fill="#b58b66" opacity=".6"/><rect x="641" y="150" width="6" height="5" fill="#b58b66" opacity=".6"/><rect x="655" y="150" width="6" height="5" fill="#b58b66" opacity=".6"/><rect x="669" y="150" width="6" height="5" fill="#b58b66" opacity=".6"/><rect x="683" y="150" width="6" height="5" fill="#b58b66" opacity=".6"/><rect x="697" y="150" width="6" height="5" fill="#b58b66" opacity=".6"/><rect x="627" y="163" width="6" height="5" fill="#b58b66" opacity=".6"/><rect x="641" y="163" width="6" height="5" fill="#b58b66" opacity=".6"/><rect x="655" y="163" width="6" height="5" fill="#b58b66" opacity=".6"/><rect x="669" y="163" width="6" height="5" fill="#b58b66" opacity=".6"/><rect x="683" y="163" width="6" height="5" fill="#b58b66" opacity=".6"/><rect x="697" y="163" width="6" height="5" fill="#b58b66" opacity=".6"/><rect x="648" y="81" width="13" height="80" fill="#62505a"/><rect x="646" y="77" width="17" height="5" fill="#8e7067"/><rect x="649" y="72" width="11" height="3" fill="#d5a575" opacity=".6"/><rect x="723" y="122" width="89" height="56" fill="#443e4a"/><rect x="726" y="119" width="84" height="4" fill="#746963"/><rect x="732" y="95" width="6" height="5" fill="#b58b66" opacity=".6"/><rect x="746" y="95" width="6" height="5" fill="#b58b66" opacity=".6"/><rect x="760" y="95" width="6" height="5" fill="#b58b66" opacity=".6"/><rect x="774" y="95" width="6" height="5" fill="#b58b66" opacity=".6"/><rect x="788" y="95" width="6" height="5" fill="#b58b66" opacity=".6"/><rect x="802" y="95" width="6" height="5" fill="#b58b66" opacity=".6"/><rect x="732" y="108" width="6" height="5" fill="#b58b66" opacity=".6"/><rect x="746" y="108" width="6" height="5" fill="#b58b66" opacity=".6"/><rect x="760" y="108" width="6" height="5" fill="#b58b66" opacity=".6"/><rect x="774" y="108" width="6" height="5" fill="#b58b66" opacity=".6"/><rect x="788" y="108" width="6" height="5" fill="#b58b66" opacity=".6"/><rect x="802" y="108" width="6" height="5" fill="#b58b66" opacity=".6"/><rect x="732" y="121" width="6" height="5" fill="#b58b66" opacity=".6"/><rect x="746" y="121" width="6" height="5" fill="#b58b66" opacity=".6"/><rect x="760" y="121" width="6" height="5" fill="#b58b66" opacity=".6"/><rect x="774" y="121" width="6" height="5" fill="#b58b66" opacity=".6"/><rect x="788" y="121" width="6" height="5" fill="#b58b66" opacity=".6"/><rect x="802" y="121" width="6" height="5" fill="#b58b66" opacity=".6"/><rect x="732" y="134" width="6" height="5" fill="#b58b66" opacity=".6"/><rect x="746" y="134" width="6" height="5" fill="#b58b66" opacity=".6"/><rect x="760" y="134" width="6" height="5" fill="#b58b66" opacity=".6"/><rect x="774" y="134" width="6" height="5" fill="#b58b66" opacity=".6"/><rect x="788" y="134" width="6" height="5" fill="#b58b66" opacity=".6"/><rect x="802" y="134" width="6" height="5" fill="#b58b66" opacity=".6"/><rect x="732" y="147" width="6" height="5" fill="#b58b66" opacity=".6"/><rect x="746" y="147" width="6" height="5" fill="#b58b66" opacity=".6"/><rect x="760" y="147" width="6" height="5" fill="#b58b66" opacity=".6"/><rect x="774" y="147" width="6" height="5" fill="#b58b66" opacity=".6"/><rect x="788" y="147" width="6" height="5" fill="#b58b66" opacity=".6"/><rect x="802" y="147" width="6" height="5" fill="#b58b66" opacity=".6"/><rect x="732" y="160" width="6" height="5" fill="#b58b66" opacity=".6"/><rect x="746" y="160" width="6" height="5" fill="#b58b66" opacity=".6"/><rect x="760" y="160" width="6" height="5" fill="#b58b66" opacity=".6"/><rect x="774" y="160" width="6" height="5" fill="#b58b66" opacity=".6"/><rect x="788" y="160" width="6" height="5" fill="#b58b66" opacity=".6"/><rect x="802" y="160" width="6" height="5" fill="#b58b66" opacity=".6"/><rect x="753" y="66" width="13" height="80" fill="#62505a"/><rect x="751" y="62" width="17" height="5" fill="#8e7067"/><rect x="754" y="57" width="11" height="3" fill="#d5a575" opacity=".6"/><path d="M194 170V57H180V52H358V58H212V170Z" fill="#a18c77"/><rect x="355" y="56" width="2" height="48" fill="#c2a88a"/><rect x="345" y="104" width="22" height="8" fill="#c6b08c"/><path d="M466 170V91H453V86H643V91H480V170Z" fill="#746f67"/><rect x="639" y="90" width="2" height="54" fill="#b6a089"/><rect x="0" y="166" width="720" height="12" fill="#be9d80" opacity=".09"/><rect x="0" y="176" width="720" height="2" fill="#8fb2a2" opacity=".45"/></svg>