<svg xmlns="http://www.w3.org/2000/svg" viewBox="0 0 600 320"><defs><linearGradient id="paper" x2="1" y2="1"><stop stop-color="#fff5db"/><stop offset="1" stop-color="#e8d9af"/></linearGradient><radialGradient id="felt"><stop stop-color="#456c51"/><stop offset="1" stop-color="#254839"/></radialGradient><pattern id="weave" width="12" height="10" patternUnits="userSpaceOnUse"><path d="M0 1h12m-11-1v10m6-10v10" stroke="#bbcc95" stroke-width=".6" opacity=".08"/></pattern></defs><path d="M0 0h600v320H0z" fill="url(#felt)"/><path d="M0 0h600v320H0z" fill="url(#weave)"/><rect x="18" y="18" width="564" height="284" rx="38" fill="none" stroke="#a2ae78" stroke-width="1" opacity=".4"/><rect x="23" y="23" width="554" height="274" rx="34" fill="none" stroke="#d5c18a" stroke-width=".6" opacity=".35"/><g transform="translate(105 97) rotate(-23 55 79)"><rect x="3" y="7" width="109" height="157" rx="7" fill="#163e2e" opacity=".35"/><rect width="109" height="157" rx="7" fill="url(#paper)" stroke="#ccbb89" stroke-width="1.5"/><rect x="7" y="7" width="95" height="143" rx="3" fill="none" stroke="#d3c49a" stroke-width=".7"/><svg x="11" y="13" width="12" height="13.5" viewBox="0 0 32 36" fill="#426a56"><circle cx="16" cy="9" r="8"/><circle cx="8" cy="21" r="8"/><circle cx="24" cy="21" r="8"/><path d="m13 23-3 11h12l-3-11z"/></svg><svg x="86" y="131" width="12" height="13.5" viewBox="0 0 32 36" fill="#426a56"><circle cx="16" cy="9" r="8"/><circle cx="8" cy="21" r="8"/><circle cx="24" cy="21" r="8"/><path d="m13 23-3 11h12l-3-11z"/></svg><svg x="23" y="40" width="17" height="19.125" viewBox="0 0 32 36" fill="#426a56"><circle cx="16" cy="9" r="8"/><circle cx="8" cy="21" r="8"/><circle cx="24" cy="21" r="8"/><path d="m13 23-3 11h12l-3-11z"/></svg><svg x="70" y="40" width="17" height="19.125" viewBox="0 0 32 36" fill="#426a56"><circle cx="16" cy="9" r="8"/><circle cx="8" cy="21" r="8"/><circle cx="24" cy="21" r="8"/><path d="m13 23-3 11h12l-3-11z"/></svg><svg x="23" y="100" width="17" height="19.125" viewBox="0 0 32 36" fill="#426a56"><circle cx="16" cy="9" r="8"/><circle cx="8" cy="21" r="8"/><circle cx="24" cy="21" r="8"/><path d="m13 23-3 11h12l-3-11z"/></svg><svg x="70" y="100" width="17" height="19.125" viewBox="0 0 32 36" fill="#426a56"><circle cx="16" cy="9" r="8"/><circle cx="8" cy="21" r="8"/><circle cx="24" cy="21" r="8"/><path d="m13 23-3 11h12l-3-11z"/></svg></g><g transform="translate(366 100) rotate(20 55 79)"><rect x="3" y="7" width="109" height="157" rx="7" fill="#163e2e" opacity=".35"/><rect width="109" height="157" rx="7" fill="url(#paper)" stroke="#ccbb89" stroke-width="1.5"/><rect x="7" y="7" width="95" height="143" rx="3" fill="none" stroke="#d3c49a" stroke-width=".7"/><svg x="11" y="13" width="12" height="13.5" viewBox="0 0 32 36" fill="#b27463"><path d="m16 1 15 17-15 17L1 18z"/></svg><svg x="86" y="131" width="12" height="13.5" viewBox="0 0 32 36" fill="#b27463"><path d="m16 1 15 17-15 17L1 18z"/></svg><svg x="40" y="51" width="32" height="36.0" viewBox="0 0 32 36" fill="#b27463"><path d="m16 1 15 17-15 17L1 18z"/></svg></g><g transform="translate(310 67) rotate(11 55 79)"><rect x="3" y="7" width="109" height="157" rx="7" fill="#163e2e" opacity=".35"/><rect width="109" height="157" rx="7" fill="url(#paper)" stroke="#ccbb89" stroke-width="1.5"/><rect x="7" y="7" width="95" height="143" rx="3" fill="none" stroke="#d3c49a" stroke-width=".7"/><path d="M10 10h89v137H10z" fill="#3d6950"/><path d="m12 15 11-3 65 131-12 3zm13-3 10-1 62 125-6 10" fill="#789460" opacity=".2"/><circle cx="55" cy="79" r="30" fill="none" stroke="#bdc38b" stroke-width="1"/><circle cx="55" cy="79" r="25" fill="#315942" stroke="#c4b17a" stroke-width="1.5"/><path d="m55 59 7 13 13 7-13 6-7 14-6-14-13-6 13-7z" fill="#ddd098"/><path d="M19 20h72v117H19z" fill="none" stroke="#a2b17c" stroke-width=".7"/></g><g transform="translate(208 53) rotate(-8 55 79)"><rect x="3" y="7" width="109" height="157" rx="7" fill="#163e2e" opacity=".35"/><rect width="109" height="157" rx="7" fill="url(#paper)" stroke="#ccbb89" stroke-width="1.5"/><rect x="7" y="7" width="95" height="143" rx="3" fill="none" stroke="#d3c49a" stroke-width=".7"/><svg x="11" y="13" width="12" height="13.5" viewBox="0 0 32 36" fill="#b27463"><path d="M16 32 4 19C-7 7 8-3 16 8 24-3 39 7 28 19z"/></svg><svg x="86" y="131" width="12" height="13.5" viewBox="0 0 32 36" fill="#b27463"><path d="M16 32 4 19C-7 7 8-3 16 8 24-3 39 7 28 19z"/></svg><svg x="24" y="36" width="16" height="18.0" viewBox="0 0 32 36" fill="#b27463"><path d="M16 32 4 19C-7 7 8-3 16 8 24-3 39 7 28 19z"/></svg><svg x="68" y="36" width="16" height="18.0" viewBox="0 0 32 36" fill="#b27463"><path d="M16 32 4 19C-7 7 8-3 16 8 24-3 39 7 28 19z"/></svg><svg x="46" y="58" width="16" height="18.0" viewBox="0 0 32 36" fill="#b27463"><path d="M16 32 4 19C-7 7 8-3 16 8 24-3 39 7 28 19z"/></svg><svg x="24" y="79" width="16" height="18.0" viewBox="0 0 32 36" fill="#b27463"><path d="M16 32 4 19C-7 7 8-3 16 8 24-3 39 7 28 19z"/></svg><svg x="68" y="79" width="16" height="18.0" viewBox="0 0 32 36" fill="#b27463"><path d="M16 32 4 19C-7 7 8-3 16 8 24-3 39 7 28 19z"/></svg><svg x="46" y="101" width="16" height="18.0" viewBox="0 0 32 36" fill="#b27463"><path d="M16 32 4 19C-7 7 8-3 16 8 24-3 39 7 28 19z"/></svg><svg x="24" y="121" width="16" height="18.0" viewBox="0 0 32 36" fill="#b27463"><path d="M16 32 4 19C-7 7 8-3 16 8 24-3 39 7 28 19z"/></svg><svg x="68" y="121" width="16" height="18.0" viewBox="0 0 32 36" fill="#b27463"><path d="M16 32 4 19C-7 7 8-3 16 8 24-3 39 7 28 19z"/></svg></g><g fill="#bba772" stroke="#ddc796" stroke-width="1"><circle cx="98" cy="263" r="17"/><circle cx="122" cy="273" r="17"/><circle cx="491" cy="260" r="17"/></g></svg>