<svg xmlns="http://www.w3.org/2000/svg" width="600" height="320" viewBox="0 0 600 320"><defs><filter id="shadow"><feDropShadow dx="0" dy="8" stdDeviation="7" flood-color="#183c29" flood-opacity=".25"/></filter><linearGradient id="paper" x2="1" y2="1"><stop stop-color="#eee6d2"/><stop offset="1" stop-color="#bac6a5"/></linearGradient><linearGradient id="wood" x2="1" y2="1"><stop stop-color="#ac8051"/><stop offset=".5" stop-color="#725238"/><stop offset="1" stop-color="#936840"/></linearGradient><radialGradient id="ivory" cx=".3" cy=".2"><stop stop-color="#fffbe9"/><stop offset="1" stop-color="#d8b77f"/></radialGradient><radialGradient id="jade" cx=".3" cy=".2"><stop stop-color="#8bb491"/><stop offset="1" stop-color="#34654a"/></radialGradient></defs><rect width="600" height="320" fill="url(#paper)"/><g fill="none" stroke="#809b68" opacity=".17"><path d="M0 12Q135 -1 300 12T600 6"/><path d="M0 28Q135 15 300 28T600 22"/><path d="M0 44Q135 31 300 44T600 38"/><path d="M0 60Q135 47 300 60T600 54"/><path d="M0 76Q135 63 300 76T600 70"/><path d="M0 92Q135 79 300 92T600 86"/><path d="M0 108Q135 95 300 108T600 102"/><path d="M0 124Q135 111 300 124T600 118"/><path d="M0 140Q135 127 300 140T600 134"/><path d="M0 156Q135 143 300 156T600 150"/><path d="M0 172Q135 159 300 172T600 166"/><path d="M0 188Q135 175 300 188T600 182"/><path d="M0 204Q135 191 300 204T600 198"/><path d="M0 220Q135 207 300 220T600 214"/><path d="M0 236Q135 223 300 236T600 230"/><path d="M0 252Q135 239 300 252T600 246"/><path d="M0 268Q135 255 300 268T600 262"/><path d="M0 284Q135 271 300 284T600 278"/><path d="M0 300Q135 287 300 300T600 294"/><path d="M0 316Q135 303 300 316T600 310"/></g><g filter="url(#shadow)"><rect x="145" y="4" width="310" height="310" rx="9" fill="#d4dfc3" stroke="#91a77e"/><rect x="155" y="14" width="290" height="290" rx="4" fill="#648264"/><rect x="158" y="17" width="30" height="30" rx="2" fill="#e5e9d7" stroke="#b3c6a4"/><rect x="190" y="17" width="30" height="30" rx="2" fill="#e5e9d7" stroke="#b3c6a4"/><rect x="222" y="17" width="30" height="30" rx="2" fill="#e5e9d7" stroke="#b3c6a4"/><rect x="254" y="17" width="30" height="30" rx="2" fill="#e5e9d7" stroke="#b3c6a4"/><text x="269" y="39" text-anchor="middle" font-family="monospace" font-size="22" font-weight="700" fill="#386d89">1</text><rect x="286" y="17" width="30" height="30" rx="2" fill="#ccddba" stroke="#91a982"/><path d="M288 45V19H314" fill="none" stroke="#f9fce7" stroke-width="2"/><rect x="318" y="17" width="30" height="30" rx="2" fill="#ccddba" stroke="#91a982"/><path d="M320 45V19H346" fill="none" stroke="#f9fce7" stroke-width="2"/><rect x="350" y="17" width="30" height="30" rx="2" fill="#ccddba" stroke="#91a982"/><path d="M352 45V19H378" fill="none" stroke="#f9fce7" stroke-width="2"/><rect x="382" y="17" width="30" height="30" rx="2" fill="#ccddba" stroke="#91a982"/><path d="M384 45V19H410" fill="none" stroke="#f9fce7" stroke-width="2"/><rect x="414" y="17" width="30" height="30" rx="2" fill="#ccddba" stroke="#91a982"/><path d="M416 45V19H442" fill="none" stroke="#f9fce7" stroke-width="2"/><rect x="158" y="49" width="30" height="30" rx="2" fill="#e5e9d7" stroke="#b3c6a4"/><rect x="190" y="49" width="30" height="30" rx="2" fill="#e5e9d7" stroke="#b3c6a4"/><rect x="222" y="49" width="30" height="30" rx="2" fill="#e5e9d7" stroke="#b3c6a4"/><rect x="254" y="49" width="30" height="30" rx="2" fill="#e5e9d7" stroke="#b3c6a4"/><text x="269" y="71" text-anchor="middle" font-family="monospace" font-size="22" font-weight="700" fill="#386d89">1</text><rect x="286" y="49" width="30" height="30" rx="2" fill="#ccddba" stroke="#91a982"/><path d="M288 77V51H314" fill="none" stroke="#f9fce7" stroke-width="2"/><rect x="318" y="49" width="30" height="30" rx="2" fill="#ccddba" stroke="#91a982"/><path d="M320 77V51H346" fill="none" stroke="#f9fce7" stroke-width="2"/><rect x="350" y="49" width="30" height="30" rx="2" fill="#ccddba" stroke="#91a982"/><path d="M352 77V51H378" fill="none" stroke="#f9fce7" stroke-width="2"/><rect x="382" y="49" width="30" height="30" rx="2" fill="#ccddba" stroke="#91a982"/><path d="M384 77V51H410" fill="none" stroke="#f9fce7" stroke-width="2"/><rect x="414" y="49" width="30" height="30" rx="2" fill="#ccddba" stroke="#91a982"/><path d="M416 77V51H442" fill="none" stroke="#f9fce7" stroke-width="2"/><rect x="158" y="81" width="30" height="30" rx="2" fill="#e5e9d7" stroke="#b3c6a4"/><rect x="190" y="81" width="30" height="30" rx="2" fill="#e5e9d7" stroke="#b3c6a4"/><rect x="222" y="81" width="30" height="30" rx="2" fill="#e5e9d7" stroke="#b3c6a4"/><rect x="254" y="81" width="30" height="30" rx="2" fill="#e5e9d7" stroke="#b3c6a4"/><text x="269" y="103" text-anchor="middle" font-family="monospace" font-size="22" font-weight="700" fill="#3d713e">2</text><rect x="286" y="81" width="30" height="30" rx="2" fill="#ccddba" stroke="#91a982"/><path d="M288 109V83H314" fill="none" stroke="#f9fce7" stroke-width="2"/><g transform="translate(286 81)"><path d="M11 6V25M7 26H18" stroke="#476440" stroke-width="2"/><path d="M12 6Q17 3 24 7V19Q17 15 12 18Z" fill="#ce7b49" stroke="#a5603c"/><path d="M14 7 20 9" stroke="#edbd84"/></g><rect x="318" y="81" width="30" height="30" rx="2" fill="#ccddba" stroke="#91a982"/><path d="M320 109V83H346" fill="none" stroke="#f9fce7" stroke-width="2"/><rect x="350" y="81" width="30" height="30" rx="2" fill="#ccddba" stroke="#91a982"/><path d="M352 109V83H378" fill="none" stroke="#f9fce7" stroke-width="2"/><rect x="382" y="81" width="30" height="30" rx="2" fill="#ccddba" stroke="#91a982"/><path d="M384 109V83H410" fill="none" stroke="#f9fce7" stroke-width="2"/><rect x="414" y="81" width="30" height="30" rx="2" fill="#ccddba" stroke="#91a982"/><path d="M416 109V83H442" fill="none" stroke="#f9fce7" stroke-width="2"/><rect x="158" y="113" width="30" height="30" rx="2" fill="#e5e9d7" stroke="#b3c6a4"/><rect x="190" y="113" width="30" height="30" rx="2" fill="#e5e9d7" stroke="#b3c6a4"/><rect x="222" y="113" width="30" height="30" rx="2" fill="#e5e9d7" stroke="#b3c6a4"/><rect x="254" y="113" width="30" height="30" rx="2" fill="#e5e9d7" stroke="#b3c6a4"/><text x="269" y="135" text-anchor="middle" font-family="monospace" font-size="22" font-weight="700" fill="#386d89">1</text><rect x="286" y="113" width="30" height="30" rx="2" fill="#ccddba" stroke="#91a982"/><path d="M288 141V115H314" fill="none" stroke="#f9fce7" stroke-width="2"/><rect x="318" y="113" width="30" height="30" rx="2" fill="#ccddba" stroke="#91a982"/><path d="M320 141V115H346" fill="none" stroke="#f9fce7" stroke-width="2"/><rect x="350" y="113" width="30" height="30" rx="2" fill="#ccddba" stroke="#91a982"/><path d="M352 141V115H378" fill="none" stroke="#f9fce7" stroke-width="2"/><rect x="382" y="113" width="30" height="30" rx="2" fill="#ccddba" stroke="#91a982"/><path d="M384 141V115H410" fill="none" stroke="#f9fce7" stroke-width="2"/><rect x="414" y="113" width="30" height="30" rx="2" fill="#ccddba" stroke="#91a982"/><path d="M416 141V115H442" fill="none" stroke="#f9fce7" stroke-width="2"/><rect x="158" y="145" width="30" height="30" rx="2" fill="#e5e9d7" stroke="#b3c6a4"/><rect x="190" y="145" width="30" height="30" rx="2" fill="#e5e9d7" stroke="#b3c6a4"/><rect x="222" y="145" width="30" height="30" rx="2" fill="#e5e9d7" stroke="#b3c6a4"/><rect x="254" y="145" width="30" height="30" rx="2" fill="#e5e9d7" stroke="#b3c6a4"/><text x="269" y="167" text-anchor="middle" font-family="monospace" font-size="22" font-weight="700" fill="#386d89">1</text><rect x="286" y="145" width="30" height="30" rx="2" fill="#ccddba" stroke="#91a982"/><path d="M288 173V147H314" fill="none" stroke="#f9fce7" stroke-width="2"/><rect x="318" y="145" width="30" height="30" rx="2" fill="#ccddba" stroke="#91a982"/><path d="M320 173V147H346" fill="none" stroke="#f9fce7" stroke-width="2"/><rect x="350" y="145" width="30" height="30" rx="2" fill="#ccddba" stroke="#91a982"/><path d="M352 173V147H378" fill="none" stroke="#f9fce7" stroke-width="2"/><rect x="382" y="145" width="30" height="30" rx="2" fill="#ccddba" stroke="#91a982"/><path d="M384 173V147H410" fill="none" stroke="#f9fce7" stroke-width="2"/><rect x="414" y="145" width="30" height="30" rx="2" fill="#ccddba" stroke="#91a982"/><path d="M416 173V147H442" fill="none" stroke="#f9fce7" stroke-width="2"/><rect x="158" y="177" width="30" height="30" rx="2" fill="#e5e9d7" stroke="#b3c6a4"/><rect x="190" y="177" width="30" height="30" rx="2" fill="#e5e9d7" stroke="#b3c6a4"/><text x="205" y="199" text-anchor="middle" font-family="monospace" font-size="22" font-weight="700" fill="#b1593d">3</text><rect x="222" y="177" width="30" height="30" rx="2" fill="#ccddba" stroke="#91a982"/><path d="M224 205V179H250" fill="none" stroke="#f9fce7" stroke-width="2"/><rect x="254" y="177" width="30" height="30" rx="2" fill="#ccddba" stroke="#91a982"/><path d="M256 205V179H282" fill="none" stroke="#f9fce7" stroke-width="2"/><rect x="286" y="177" width="30" height="30" rx="2" fill="#ccddba" stroke="#91a982"/><path d="M288 205V179H314" fill="none" stroke="#f9fce7" stroke-width="2"/><rect x="318" y="177" width="30" height="30" rx="2" fill="#ccddba" stroke="#91a982"/><path d="M320 205V179H346" fill="none" stroke="#f9fce7" stroke-width="2"/><rect x="350" y="177" width="30" height="30" rx="2" fill="#ccddba" stroke="#91a982"/><path d="M352 205V179H378" fill="none" stroke="#f9fce7" stroke-width="2"/><rect x="382" y="177" width="30" height="30" rx="2" fill="#ccddba" stroke="#91a982"/><path d="M384 205V179H410" fill="none" stroke="#f9fce7" stroke-width="2"/><g transform="translate(382 177)"><path d="M11 6V25M7 26H18" stroke="#476440" stroke-width="2"/><path d="M12 6Q17 3 24 7V19Q17 15 12 18Z" fill="#ce7b49" stroke="#a5603c"/><path d="M14 7 20 9" stroke="#edbd84"/></g><rect x="414" y="177" width="30" height="30" rx="2" fill="#ccddba" stroke="#91a982"/><path d="M416 205V179H442" fill="none" stroke="#f9fce7" stroke-width="2"/><rect x="158" y="209" width="30" height="30" rx="2" fill="#e5e9d7" stroke="#b3c6a4"/><rect x="190" y="209" width="30" height="30" rx="2" fill="#e5e9d7" stroke="#b3c6a4"/><rect x="222" y="209" width="30" height="30" rx="2" fill="#ccddba" stroke="#91a982"/><path d="M224 237V211H250" fill="none" stroke="#f9fce7" stroke-width="2"/><g transform="translate(222 209)"><path d="M11 6V25M7 26H18" stroke="#476440" stroke-width="2"/><path d="M12 6Q17 3 24 7V19Q17 15 12 18Z" fill="#ce7b49" stroke="#a5603c"/><path d="M14 7 20 9" stroke="#edbd84"/></g><rect x="254" y="209" width="30" height="30" rx="2" fill="#ccddba" stroke="#91a982"/><path d="M256 237V211H282" fill="none" stroke="#f9fce7" stroke-width="2"/><rect x="286" y="209" width="30" height="30" rx="2" fill="#ccddba" stroke="#91a982"/><path d="M288 237V211H314" fill="none" stroke="#f9fce7" stroke-width="2"/><rect x="318" y="209" width="30" height="30" rx="2" fill="#ccddba" stroke="#91a982"/><path d="M320 237V211H346" fill="none" stroke="#f9fce7" stroke-width="2"/><rect x="350" y="209" width="30" height="30" rx="2" fill="#ccddba" stroke="#91a982"/><path d="M352 237V211H378" fill="none" stroke="#f9fce7" stroke-width="2"/><rect x="382" y="209" width="30" height="30" rx="2" fill="#ccddba" stroke="#91a982"/><path d="M384 237V211H410" fill="none" stroke="#f9fce7" stroke-width="2"/><rect x="414" y="209" width="30" height="30" rx="2" fill="#ccddba" stroke="#91a982"/><path d="M416 237V211H442" fill="none" stroke="#f9fce7" stroke-width="2"/><rect x="158" y="241" width="30" height="30" rx="2" fill="#e5e9d7" stroke="#b3c6a4"/><rect x="190" y="241" width="30" height="30" rx="2" fill="#e5e9d7" stroke="#b3c6a4"/><text x="205" y="263" text-anchor="middle" font-family="monospace" font-size="22" font-weight="700" fill="#386d89">1</text><rect x="222" y="241" width="30" height="30" rx="2" fill="#ccddba" stroke="#91a982"/><path d="M224 269V243H250" fill="none" stroke="#f9fce7" stroke-width="2"/><rect x="254" y="241" width="30" height="30" rx="2" fill="#ccddba" stroke="#91a982"/><path d="M256 269V243H282" fill="none" stroke="#f9fce7" stroke-width="2"/><rect x="286" y="241" width="30" height="30" rx="2" fill="#ccddba" stroke="#91a982"/><path d="M288 269V243H314" fill="none" stroke="#f9fce7" stroke-width="2"/><rect x="318" y="241" width="30" height="30" rx="2" fill="#ccddba" stroke="#91a982"/><path d="M320 269V243H346" fill="none" stroke="#f9fce7" stroke-width="2"/><rect x="350" y="241" width="30" height="30" rx="2" fill="#ccddba" stroke="#91a982"/><path d="M352 269V243H378" fill="none" stroke="#f9fce7" stroke-width="2"/><rect x="382" y="241" width="30" height="30" rx="2" fill="#ccddba" stroke="#91a982"/><path d="M384 269V243H410" fill="none" stroke="#f9fce7" stroke-width="2"/><rect x="414" y="241" width="30" height="30" rx="2" fill="#ccddba" stroke="#91a982"/><path d="M416 269V243H442" fill="none" stroke="#f9fce7" stroke-width="2"/><rect x="158" y="273" width="30" height="30" rx="2" fill="#ccddba" stroke="#91a982"/><path d="M160 301V275H186" fill="none" stroke="#f9fce7" stroke-width="2"/><rect x="190" y="273" width="30" height="30" rx="2" fill="#ccddba" stroke="#91a982"/><path d="M192 301V275H218" fill="none" stroke="#f9fce7" stroke-width="2"/><rect x="222" y="273" width="30" height="30" rx="2" fill="#ccddba" stroke="#91a982"/><path d="M224 301V275H250" fill="none" stroke="#f9fce7" stroke-width="2"/><rect x="254" y="273" width="30" height="30" rx="2" fill="#ccddba" stroke="#91a982"/><path d="M256 301V275H282" fill="none" stroke="#f9fce7" stroke-width="2"/><rect x="286" y="273" width="30" height="30" rx="2" fill="#ccddba" stroke="#91a982"/><path d="M288 301V275H314" fill="none" stroke="#f9fce7" stroke-width="2"/><rect x="318" y="273" width="30" height="30" rx="2" fill="#ccddba" stroke="#91a982"/><path d="M320 301V275H346" fill="none" stroke="#f9fce7" stroke-width="2"/><rect x="350" y="273" width="30" height="30" rx="2" fill="#ccddba" stroke="#91a982"/><path d="M352 301V275H378" fill="none" stroke="#f9fce7" stroke-width="2"/><rect x="382" y="273" width="30" height="30" rx="2" fill="#ccddba" stroke="#91a982"/><path d="M384 301V275H410" fill="none" stroke="#f9fce7" stroke-width="2"/><rect x="414" y="273" width="30" height="30" rx="2" fill="#ccddba" stroke="#91a982"/><path d="M416 301V275H442" fill="none" stroke="#f9fce7" stroke-width="2"/></g><g fill="none" stroke="#839d74" opacity=".3"><circle cx="76" cy="80" r="30"/><circle cx="76" cy="80" r="20"/><path d="M76 44V116M40 80H112"/><circle cx="529" cy="248" r="24"/><path d="M529 219V277M500 248H558"/></g></svg>